SplineFontDB: 3.2
FontName: Untitled1
FullName: Untitled1
FamilyName: Untitled1
Weight: Regular
Copyright: Copyright (c) 2025, Bastien
UComments: "2025-9-1: Created with FontForge (http://fontforge.org)"
Version: 001.000
ItalicAngle: 0
UnderlinePosition: -100
UnderlineWidth: 50
Ascent: 800
Descent: 200
InvalidEm: 0
LayerCount: 2
Layer: 0 0 "Arri+AOgA-re" 1
Layer: 1 0 "Avant" 0
XUID: [1021 699 -655757406 4346191]
OS2Version: 0
OS2_WeightWidthSlopeOnly: 0
OS2_UseTypoMetrics: 1
CreationTime: 1756745831
ModificationTime: 1756745831
OS2TypoAscent: 0
OS2TypoAOffset: 1
OS2TypoDescent: 0
OS2TypoDOffset: 1
OS2TypoLinegap: 0
OS2WinAscent: 0
OS2WinAOffset: 1
OS2WinDescent: 0
OS2WinDOffset: 1
HheadAscent: 0
HheadAOffset: 1
HheadDescent: 0
HheadDOffset: 1
OS2Vendor: 'PfEd'
DEI: 91125
Encoding: ISO8859-1
UnicodeInterp: none
NameList: AGL For New Fonts
DisplaySize: -48
AntiAlias: 1
FitToEm: 0
BeginChars: 256 95

StartChar: exclam
Encoding: 33 33 1
Width: 331
Flags: HW
LayerCount: 2
Fore
SplineSet
70.5673828125 722 m 1
 271.413085938 722 l 1
 261.370117188 238.848632812 l 1
 80.609375 238.848632812 l 1
 70.5673828125 722 l 1
276.434570312 106.321289062 m 0
 276.434570312 78.3544921875 265.323242188 51.5361328125 245.548828125 31.7626953125 c 0
 225.774414062 11.98828125 198.95703125 0.876953125 170.990234375 0.876953125 c 0
 143.0234375 0.876953125 116.205078125 11.98828125 96.4306640625 31.7626953125 c 0
 76.6572265625 51.5361328125 65.5458984375 78.3544921875 65.5458984375 106.321289062 c 0
 65.5458984375 134.288085938 76.6572265625 161.106445312 96.4306640625 180.880859375 c 0
 116.205078125 200.654296875 143.0234375 211.765625 170.990234375 211.765625 c 0
 198.95703125 211.765625 225.774414062 200.654296875 245.548828125 180.880859375 c 0
 265.323242188 161.106445312 276.434570312 134.288085938 276.434570312 106.321289062 c 0
EndSplineSet
EndChar

StartChar: quotedbl
Encoding: 34 34 2
Width: 420
Flags: HW
LayerCount: 2
Fore
SplineSet
16.6044921875 772.958007812 m 1
 207.25 772.958007812 l 1
 207.25 577.38671875 l 1
 16.6044921875 577.38671875 l 1
 16.6044921875 772.958007812 l 1
415.5703125 577.38671875 m 1
 224.92578125 577.38671875 l 1
 224.92578125 772.958007812 l 1
 415.5703125 772.958007812 l 1
 415.5703125 577.38671875 l 1
EndSplineSet
EndChar

StartChar: numbersign
Encoding: 35 35 3
Width: 663
Flags: HW
LayerCount: 2
Fore
SplineSet
66.94140625 371.739257812 m 1
 66.94140625 536.567382812 l 1
 614.998046875 536.567382812 l 1
 614.998046875 371.739257812 l 1
 66.94140625 371.739257812 l 1
66.94140625 103.893554688 m 1
 66.94140625 268.72265625 l 1
 614.998046875 268.72265625 l 1
 614.998046875 103.893554688 l 1
 66.94140625 103.893554688 l 1
66.94140625 0.876953125 m 1
 204.98828125 722 l 1
 369.81640625 722 l 1
 231.76953125 0.876953125 l 1
 66.94140625 0.876953125 l 1
312.123046875 0.876953125 m 1
 450.169921875 722 l 1
 614.998046875 722 l 1
 476.951171875 0.876953125 l 1
 312.123046875 0.876953125 l 1
EndSplineSet
EndChar

StartChar: dollar
Encoding: 36 36 4
Width: 663
Flags: HW
LayerCount: 2
Fore
SplineSet
347.765625 730.241210938 m 0
 454.158203125 730.241210938 553.573242188 677.28515625 612.93359375 588.990234375 c 1
 477.913085938 494.448242188 l 1
 449.409179688 538.68359375 400.388671875 565.413085938 347.765625 565.413085938 c 0
 284.489257812 565.413085938 226.581054688 567.310546875 226.581054688 512.861328125 c 0
 226.581054688 479.064453125 255.870117188 467.904296875 291.594726562 460.310546875 c 2
 424.615234375 432.03515625 l 2
 558.408203125 403.595703125 656.205078125 343.413085938 656.205078125 214.135742188 c 0
 656.205078125 53.091796875 514.34375 -7.3642578125 334.173828125 -7.3642578125 c 0
 215.71484375 -7.3642578125 103.12109375 44.1982421875 25.734375 133.88671875 c 1
 160.754882812 228.428710938 l 1
 207.01953125 182.94921875 269.298828125 157.463867188 334.173828125 157.463867188 c 0
 398.068359375 157.463867188 455.358398438 159.283203125 455.358398438 214.135742188 c 0
 455.358398438 249.06640625 426.932617188 263.03125 390.344726562 270.80859375 c 2
 257.32421875 299.083007812 l 2
 124.432617188 327.331054688 25.734375 384.87109375 25.734375 512.861328125 c 0
 25.734375 672.700195312 168.21484375 730.241210938 347.765625 730.241210938 c 0
265.350585938 750.844726562 m 1
 430.1796875 750.844726562 l 1
 416.588867188 -27.9677734375 l 1
 251.759765625 -27.9677734375 l 1
 265.350585938 750.844726562 l 1
EndSplineSet
EndChar

StartChar: percent
Encoding: 37 37 5
Width: 868
Flags: HW
LayerCount: 2
Fore
SplineSet
100.744140625 0.876953125 m 1
 589.9921875 722 l 1
 790.837890625 722 l 1
 301.58984375 0.876953125 l 1
 100.744140625 0.876953125 l 1
201.166992188 730.241210938 m 1
 308.676757812 730.241210938 379.076171875 666.51953125 379.076171875 560.77734375 c 0
 379.076171875 455.03515625 308.676757812 391.3125 201.166992188 391.3125 c 0
 93.6572265625 391.3125 23.2568359375 455.03515625 23.2568359375 560.77734375 c 0
 23.2568359375 666.51953125 93.6572265625 730.241210938 201.166992188 730.241210938 c 1
 201.166992188 565.413085938 l 1
 156.366210938 565.413085938 224.102539062 578.978515625 224.102539062 560.77734375 c 0
 224.102539062 542.575195312 156.366210938 556.141601562 201.166992188 556.141601562 c 0
 245.967773438 556.141601562 178.23046875 542.575195312 178.23046875 560.77734375 c 0
 178.23046875 578.978515625 245.967773438 565.413085938 201.166992188 565.413085938 c 1
 201.166992188 730.241210938 l 1
690.415039062 -7.3642578125 m 1
 582.905273438 -7.3642578125 512.505859375 56.357421875 512.505859375 162.099609375 c 0
 512.505859375 267.841796875 582.905273438 331.564453125 690.415039062 331.564453125 c 0
 797.924804688 331.564453125 868.325195312 267.841796875 868.325195312 162.099609375 c 0
 868.325195312 56.357421875 797.924804688 -7.3642578125 690.415039062 -7.3642578125 c 1
 690.415039062 157.463867188 l 1
 735.215820312 157.463867188 667.478515625 143.8984375 667.478515625 162.099609375 c 0
 667.478515625 180.301757812 735.215820312 166.735351562 690.415039062 166.735351562 c 0
 645.614257812 166.735351562 713.3515625 180.301757812 713.3515625 162.099609375 c 0
 713.3515625 143.8984375 645.614257812 157.463867188 690.415039062 157.463867188 c 1
 690.415039062 -7.3642578125 l 1
EndSplineSet
EndChar

StartChar: ampersand
Encoding: 38 38 6
Width: 719
Flags: HW
LayerCount: 2
Fore
SplineSet
332.46875 730.241210938 m 0
 417.203125 730.241210938 498.901367188 698.69140625 561.642578125 641.740234375 c 1
 471.583984375 534.4140625 l 1
 434.099609375 570.180664062 384.279296875 590.135742188 332.46875 590.135742188 c 0
 271.771484375 590.135742188 223.96875 569.796875 223.96875 515.549804688 c 0
 223.96875 478.961914062 248.262695312 446.823242188 283.462890625 436.842773438 c 1
 712.864257812 436.842773438 l 1
 712.864257812 293.442382812 l 1
 283.462890625 293.442382812 l 1
 133.588867188 365.142578125 l 1
 77.9697265625 394.7109375 43.208984375 452.559570312 43.208984375 515.549804688 c 0
 43.208984375 665.104492188 168.21484375 730.241210938 332.46875 730.241210938 c 0
133.588867188 365.142578125 m 1
 283.462890625 293.442382812 l 1
 243.922851562 288.57421875 214.21875 254.98828125 214.21875 215.150390625 c 0
 214.21875 162.045898438 256.115234375 136.03515625 313.251953125 136.03515625 c 0
 396.534179688 136.03515625 467.26171875 197.01171875 479.52734375 279.385742188 c 1
 553.69921875 150.915039062 l 1
 485.000976562 51.7802734375 372.055664062 -7.3642578125 251.444335938 -7.3642578125 c 0
 108.389648438 -7.3642578125 13.3720703125 75.3466796875 13.3720703125 215.150390625 c 0
 13.3720703125 287.131835938 63.3349609375 349.46875 133.588867188 365.142578125 c 1
431.252929688 365.142578125 m 1
 601.973632812 365.142578125 l 1
 601.973632812 151.858398438 l 1
 692.26171875 0.876953125 l 1
 491.415039062 0.876953125 l 1
 431.252929688 151.858398438 l 1
 431.252929688 365.142578125 l 1
EndSplineSet
EndChar

StartChar: quotesingle
Encoding: 39 39 7
Width: 161
Flags: HW
LayerCount: 2
Fore
SplineSet
0 800 m 1
 195.944335938 800 l 1
 186.146484375 598.993164062 l 1
 9.7978515625 598.993164062 l 1
 0 800 l 1
EndSplineSet
EndChar

StartChar: parenleft
Encoding: 40 40 8
Width: 367
Flags: HW
LayerCount: 2
Fore
SplineSet
205.331054688 772.958007812 m 1
 361.788085938 772.958007812 l 1
 291.094726562 637.052734375 254.186523438 486.115234375 254.186523438 332.923828125 c 0
 254.186523438 179.731445312 291.094726562 28.794921875 361.788085938 -107.110351562 c 1
 205.331054688 -107.110351562 l 1
 113.138671875 21.0927734375 63.541015625 175.013671875 63.541015625 332.923828125 c 0
 63.541015625 490.833007812 113.138671875 644.754882812 205.331054688 772.958007812 c 1
EndSplineSet
EndChar

StartChar: parenright
Encoding: 41 41 9
Width: 367
Flags: HW
LayerCount: 2
Fore
SplineSet
16.6044921875 772.958007812 m 1
 173.061523438 772.958007812 l 1
 265.254882812 644.754882812 314.8515625 490.833007812 314.8515625 332.923828125 c 0
 314.8515625 175.013671875 265.254882812 21.0927734375 173.061523438 -107.110351562 c 1
 16.6044921875 -107.110351562 l 1
 87.2978515625 28.794921875 124.20703125 179.731445312 124.20703125 332.923828125 c 0
 124.20703125 486.115234375 87.2978515625 637.052734375 16.6044921875 772.958007812 c 1
EndSplineSet
EndChar

StartChar: asterisk
Encoding: 42 42 10
Width: 587
Flags: HW
LayerCount: 2
Fore
SplineSet
280.9921875 536.419921875 m 1
 82.7353515625 570.241210938 l 1
 142.68359375 754.740234375 l 1
 322.956054688 665.567382812 l 1
 280.9921875 536.419921875 l 1
356.905273438 561.084960938 m 1
 263.474609375 382.98046875 l 1
 106.529296875 497.006835938 l 1
 247.043945312 640.90234375 l 1
 356.905273438 561.084960938 l 1
356.905273438 640.90234375 m 1
 497.419921875 497.006835938 l 1
 340.474609375 382.98046875 l 1
 247.043945312 561.084960938 l 1
 356.905273438 640.90234375 l 1
280.9921875 665.567382812 m 1
 461.265625 754.740234375 l 1
 521.213867188 570.241210938 l 1
 322.956054688 536.419921875 l 1
 280.9921875 665.567382812 l 1
234.077148438 600.993164062 m 1
 204.977539062 800 l 1
 398.971679688 800 l 1
 369.872070312 600.993164062 l 1
 234.077148438 600.993164062 l 1
EndSplineSet
EndChar

StartChar: plus
Encoding: 43 43 11
Width: 663
Flags: HW
LayerCount: 2
Fore
SplineSet
86 206.907226562 m 1
 86 371.736328125 l 1
 595.939453125 371.736328125 l 1
 595.939453125 206.907226562 l 1
 86 206.907226562 l 1
240.546875 34.3515625 m 1
 240.546875 544.291015625 l 1
 441.392578125 544.291015625 l 1
 441.392578125 34.3515625 l 1
 240.546875 34.3515625 l 1
EndSplineSet
EndChar

StartChar: comma
Encoding: 44 44 12
Width: 254
Flags: HW
LayerCount: 2
Fore
SplineSet
36.0751953125 103.89453125 m 1
 236.920898438 103.89453125 l 1
 206.495117188 -102.140625 l 1
 25.734375 -102.140625 l 1
 36.0751953125 103.89453125 l 1
EndSplineSet
EndChar

StartChar: hyphen
Encoding: 45 45 13
Width: 663
Flags: HW
LayerCount: 2
Fore
SplineSet
86 206.907226562 m 1
 86 371.736328125 l 1
 595.939453125 371.736328125 l 1
 595.939453125 206.907226562 l 1
 86 206.907226562 l 1
EndSplineSet
EndChar

StartChar: period
Encoding: 46 46 14
Width: 276
Flags: HW
LayerCount: 2
Fore
SplineSet
248.104492188 98.080078125 m 0
 248.104492188 70.11328125 236.993164062 43.294921875 217.21875 23.5205078125 c 0
 197.444335938 3.7470703125 170.626953125 -7.3642578125 142.66015625 -7.3642578125 c 0
 114.693359375 -7.3642578125 87.875 3.7470703125 68.1005859375 23.5205078125 c 0
 48.3271484375 43.294921875 37.2158203125 70.11328125 37.2158203125 98.080078125 c 0
 37.2158203125 126.046875 48.3271484375 152.865234375 68.1005859375 172.638671875 c 0
 87.875 192.413085938 114.693359375 203.524414062 142.66015625 203.524414062 c 0
 170.626953125 203.524414062 197.444335938 192.413085938 217.21875 172.638671875 c 0
 236.993164062 152.865234375 248.104492188 126.046875 248.104492188 98.080078125 c 0
EndSplineSet
EndChar

StartChar: slash
Encoding: 47 47 15
Width: 459
Flags: HW
LayerCount: 2
Fore
SplineSet
253.958007812 730.241210938 m 1
 454.803710938 730.241210938 l 1
 218.338867188 -7.3642578125 l 1
 17.4931640625 -7.3642578125 l 1
 253.958007812 730.241210938 l 1
EndSplineSet
EndChar

StartChar: zero
Encoding: 48 48 16
Width: 608
Flags: HW
LayerCount: 2
Fore
SplineSet
312.639648438 730.241210938 m 1
 507.723632812 730.241210938 599.544921875 572.958007812 599.544921875 361.438476562 c 0
 599.544921875 149.918945312 507.723632812 -7.3642578125 312.639648438 -7.3642578125 c 0
 117.555664062 -7.3642578125 25.734375 149.918945312 25.734375 361.438476562 c 0
 25.734375 572.958007812 117.555664062 730.241210938 312.639648438 730.241210938 c 1
 312.639648438 565.413085938 l 1
 237.797851562 565.413085938 226.581054688 448.278320312 226.581054688 361.438476562 c 0
 226.581054688 274.598632812 237.797851562 157.463867188 312.639648438 157.463867188 c 0
 387.481445312 157.463867188 398.69921875 274.598632812 398.69921875 361.438476562 c 0
 398.69921875 448.278320312 387.481445312 565.413085938 312.639648438 565.413085938 c 1
 312.639648438 730.241210938 l 1
EndSplineSet
EndChar

StartChar: one
Encoding: 49 49 17
Width: 608
Flags: HW
LayerCount: 2
Fore
SplineSet
218.446289062 722 m 1
 419.291992188 722 l 1
 419.291992188 0.876953125 l 1
 218.446289062 0.876953125 l 1
 218.446289062 551.279296875 l 1
 66.94140625 443.115234375 l 1
 66.94140625 613.8359375 l 1
 218.446289062 722 l 1
66.94140625 165.706054688 m 1
 561.939453125 165.706054688 l 1
 561.939453125 0.876953125 l 1
 66.94140625 0.876953125 l 1
 66.94140625 165.706054688 l 1
EndSplineSet
EndChar

StartChar: two
Encoding: 50 50 18
Width: 608
Flags: HW
LayerCount: 2
Fore
SplineSet
14.232421875 570.563476562 m 1
 68.53515625 669.06640625 172.114257812 730.241210938 284.59375 730.241210938 c 0
 449.517578125 730.241210938 574.407226562 663.459960938 574.407226562 512.87890625 c 0
 574.407226562 415.40234375 498.958984375 341.452148438 421.049804688 281.203125 c 0
 421.024414062 281.18359375 112.16015625 42.3330078125 112.135742188 42.3134765625 c 1
 25.734375 165.706054688 l 2
 25.759765625 165.725585938 328.864257812 412.802734375 328.888671875 412.822265625 c 0
 353.870117188 433.186523438 373.561523438 460.815429688 373.561523438 492.868164062 c 0
 373.561523438 544.182617188 337.61328125 573.654296875 284.59375 573.654296875 c 0
 228.048828125 573.654296875 176.161132812 542.31640625 149.840820312 492.26953125 c 1
 14.232421875 570.563476562 l 1
25.734375 0.876953125 m 1
 25.734375 165.706054688 l 1
 574.407226562 165.706054688 l 1
 574.407226562 0.876953125 l 1
 25.734375 0.876953125 l 1
EndSplineSet
EndChar

StartChar: three
Encoding: 51 51 19
Width: 608
Flags: HW
LayerCount: 2
Fore
SplineSet
82.037109375 722 m 1
 558.337890625 722 l 1
 558.337890625 610.741210938 l 1
 409.609375 429.946289062 l 1
 208.762695312 429.946289062 l 1
 304.096679688 573.655273438 l 1
 82.037109375 573.655273438 l 1
 82.037109375 722 l 1
208.762695312 429.946289062 m 1
 409.609375 429.946289062 l 2
 527.838867188 429.946289062 599.544921875 351.82421875 599.544921875 231.89453125 c 0
 599.544921875 67.2421875 464.3046875 -7.3642578125 284.59375 -7.3642578125 c 0
 176.868164062 -7.3642578125 75.974609375 45.4052734375 14.5263671875 133.88671875 c 1
 149.546875 228.428710938 l 1
 180.1484375 183.999023438 230.645507812 157.463867188 284.59375 157.463867188 c 0
 347.828125 157.463867188 398.69921875 175.989257812 398.69921875 231.89453125 c 0
 398.69921875 280.938476562 361.319335938 306.32421875 309.186523438 306.32421875 c 2
 258.974609375 306.32421875 l 1
 208.762695312 429.946289062 l 1
EndSplineSet
EndChar

StartChar: four
Encoding: 52 52 20
Width: 608
Flags: HW
LayerCount: 2
Fore
SplineSet
287.004882812 722 m 1
 487.850585938 722 l 1
 226.581054688 267.688476562 l 1
 25.734375 267.688476562 l 1
 287.004882812 722 l 1
25.734375 102.860351562 m 1
 25.734375 267.688476562 l 1
 607.786132812 267.688476562 l 1
 607.786132812 102.860351562 l 1
 25.734375 102.860351562 l 1
331.33203125 390.284179688 m 1
 512.091796875 433.5546875 l 1
 512.091796875 0.876953125 l 1
 331.33203125 0.876953125 l 1
 331.33203125 390.284179688 l 1
EndSplineSet
EndChar

StartChar: five
Encoding: 53 53 21
Width: 608
Flags: HW
LayerCount: 2
Fore
SplineSet
66.94140625 722 m 1
 530.784179688 722 l 1
 530.784179688 557.170898438 l 1
 66.94140625 557.170898438 l 1
 66.94140625 722 l 1
66.94140625 722 m 1
 247.701171875 722 l 1
 247.701171875 274.907226562 l 1
 66.94140625 274.907226562 l 1
 66.94140625 722 l 1
198.251953125 274.907226562 m 1
 177.969726562 392.084960938 249.298828125 476.8203125 368.21875 476.8203125 c 0
 511.53515625 476.8203125 599.544921875 383.557617188 599.544921875 238.848632812 c 0
 599.544921875 71.01953125 463.700195312 -7.3642578125 281.474609375 -7.3642578125 c 0
 174.090820312 -7.3642578125 73.6982421875 45.890625 13.4775390625 134.799804688 c 1
 148.498046875 229.341796875 l 1
 174.55078125 180.055664062 225.7265625 149.22265625 281.474609375 149.22265625 c 0
 348.454101562 149.22265625 398.69921875 177.373046875 398.69921875 238.848632812 c 0
 398.69921875 293.072265625 361.87890625 325.178710938 306.41015625 325.178710938 c 0
 277.126953125 325.178710938 252.208984375 303.842773438 247.701171875 274.907226562 c 1
 198.251953125 274.907226562 l 1
EndSplineSet
EndChar

StartChar: six
Encoding: 54 54 22
Width: 608
Flags: HW
LayerCount: 2
Fore
SplineSet
579.075195312 603.836914062 m 1
 457.557617188 518.749023438 l 1
 433.083984375 558.024414062 390.081054688 581.896484375 343.8046875 581.896484375 c 0
 225.069335938 581.896484375 226.581054688 456.307617188 226.581054688 318.172851562 c 2
 226.581054688 242.451171875 l 2
 226.581054688 183.064453125 256.423828125 140.98046875 312.639648438 140.98046875 c 0
 372.013671875 140.98046875 406.940429688 181.580078125 406.940429688 242.451171875 c 0
 406.940429688 302.565429688 374.529296875 343.922851562 316.760742188 343.922851562 c 0
 258.991210938 343.922851562 226.581054688 302.565429688 226.581054688 242.451171875 c 1
 193.615234375 242.451171875 l 1
 193.615234375 380.5234375 251.793945312 484.028320312 378.568359375 484.028320312 c 0
 521.794921875 484.028320312 607.786132812 388.263671875 607.786132812 242.451171875 c 0
 607.786132812 79.1240234375 485.2890625 -7.3642578125 312.639648438 -7.3642578125 c 0
 128.227539062 -7.3642578125 25.734375 125.75 25.734375 318.172851562 c 0
 25.734375 583.592773438 99.5478515625 730.241210938 343.8046875 730.241210938 c 0
 438.466796875 730.241210938 526.821289062 682.770507812 579.075195312 603.836914062 c 1
EndSplineSet
EndChar

StartChar: seven
Encoding: 55 55 23
Width: 608
Flags: HW
LayerCount: 2
Fore
SplineSet
25.734375 557.170898438 m 1
 25.734375 722 l 1
 599.544921875 722 l 1
 599.544921875 557.170898438 l 1
 25.734375 557.170898438 l 1
398.69921875 557.170898438 m 1
 599.544921875 557.170898438 l 1
 303.990234375 0.876953125 l 1
 103.14453125 0.876953125 l 1
 398.69921875 557.170898438 l 1
EndSplineSet
EndChar

StartChar: eight
Encoding: 56 56 24
Width: 608
Flags: HW
LayerCount: 2
Fore
SplineSet
312.639648438 590.135742188 m 1
 312.639648438 730.241210938 l 1
 458.203125 730.241210938 558.337890625 651.739257812 558.337890625 511.844726562 c 0
 558.337890625 381.005859375 453.966796875 318.173828125 312.639648438 318.173828125 c 0
 171.3125 318.173828125 66.94140625 381.005859375 66.94140625 511.844726562 c 0
 66.94140625 651.739257812 167.076171875 730.241210938 312.639648438 730.241210938 c 1
 312.639648438 590.135742188 l 1
 275.8125 590.135742188 267.787109375 554.32421875 267.787109375 511.844726562 c 0
 267.787109375 469.365234375 275.8125 433.553710938 312.639648438 433.553710938 c 0
 349.466796875 433.553710938 357.4921875 469.365234375 357.4921875 511.844726562 c 0
 357.4921875 554.32421875 349.466796875 590.135742188 312.639648438 590.135742188 c 1
312.639648438 318.173828125 m 1
 312.639648438 433.553710938 l 1
 474.80078125 433.553710938 599.544921875 372.236328125 599.544921875 225.45703125 c 0
 599.544921875 70.3291015625 478.76953125 -7.3642578125 312.639648438 -7.3642578125 c 0
 146.510742188 -7.3642578125 25.734375 70.3291015625 25.734375 225.45703125 c 0
 25.734375 372.236328125 150.478515625 433.553710938 312.639648438 433.553710938 c 1
 312.639648438 318.173828125 l 1
 258.430664062 318.173828125 226.581054688 281.057617188 226.581054688 225.45703125 c 0
 226.581054688 169.857421875 258.430664062 132.741210938 312.639648438 132.741210938 c 0
 366.848632812 132.741210938 398.69921875 169.857421875 398.69921875 225.45703125 c 0
 398.69921875 281.057617188 366.848632812 318.173828125 312.639648438 318.173828125 c 1
EndSplineSet
EndChar

StartChar: nine
Encoding: 57 57 25
Width: 608
Flags: HW
LayerCount: 2
Fore
SplineSet
134.275390625 204.127929688 m 1
 171.836914062 168.85546875 221.427734375 149.22265625 272.955078125 149.22265625 c 0
 424.360351562 149.22265625 408.875976562 312.600585938 408.875976562 487.63671875 c 0
 408.875976562 537.129882812 374.034179688 565.413085938 322.81640625 565.413085938 c 0
 271.598632812 565.413085938 236.7578125 537.129882812 236.7578125 487.63671875 c 0
 236.7578125 431.379882812 268.268554688 393.379882812 322.81640625 393.379882812 c 0
 377.365234375 393.379882812 408.875976562 431.379882812 408.875976562 487.63671875 c 1
 433.981445312 487.63671875 l 1
 469.890625 371.211914062 382.845703125 253.274414062 261.008789062 253.274414062 c 0
 120.965820312 253.274414062 35.912109375 345.653320312 35.912109375 487.63671875 c 0
 35.912109375 646.31640625 155.028320312 730.241210938 322.81640625 730.241210938 c 0
 506.127929688 730.241210938 609.721679688 599.857421875 609.721679688 409.516601562 c 0
 609.721679688 138.241210938 525.921875 -7.3642578125 272.955078125 -7.3642578125 c 0
 171.426757812 -7.3642578125 75.5146484375 39.23046875 12.7578125 119.040039062 c 1
 134.275390625 204.127929688 l 1
EndSplineSet
EndChar

StartChar: colon
Encoding: 58 58 26
Width: 304
Flags: HW
LayerCount: 2
Fore
SplineSet
262.26953125 98.080078125 m 0
 262.26953125 70.11328125 251.158203125 43.294921875 231.383789062 23.5205078125 c 0
 211.610351562 3.7470703125 184.791992188 -7.3642578125 156.825195312 -7.3642578125 c 0
 128.858398438 -7.3642578125 102.040039062 3.7470703125 82.2666015625 23.5205078125 c 0
 62.4921875 43.294921875 51.380859375 70.11328125 51.380859375 98.080078125 c 0
 51.380859375 126.046875 62.4921875 152.865234375 82.2666015625 172.638671875 c 0
 102.040039062 192.413085938 128.858398438 203.524414062 156.825195312 203.524414062 c 0
 184.791992188 203.524414062 211.610351562 192.413085938 231.383789062 172.638671875 c 0
 251.158203125 152.865234375 262.26953125 126.046875 262.26953125 98.080078125 c 0
262.26953125 439.365234375 m 0
 262.26953125 411.3984375 251.158203125 384.580078125 231.383789062 364.806640625 c 0
 211.610351562 345.032226562 184.791992188 333.920898438 156.825195312 333.920898438 c 0
 128.858398438 333.920898438 102.040039062 345.032226562 82.2666015625 364.806640625 c 0
 62.4921875 384.580078125 51.380859375 411.3984375 51.380859375 439.365234375 c 0
 51.380859375 467.33203125 62.4921875 494.150390625 82.2666015625 513.923828125 c 0
 102.040039062 533.698242188 128.858398438 544.809570312 156.825195312 544.809570312 c 0
 184.791992188 544.809570312 211.610351562 533.698242188 231.383789062 513.923828125 c 0
 251.158203125 494.150390625 262.26953125 467.33203125 262.26953125 439.365234375 c 0
EndSplineSet
EndChar

StartChar: semicolon
Encoding: 59 59 27
Width: 304
Flags: HW
LayerCount: 2
Fore
SplineSet
262.26953125 98.080078125 m 0
 262.26953125 70.11328125 251.158203125 43.294921875 231.383789062 23.5205078125 c 0
 211.610351562 3.7470703125 184.791992188 -7.3642578125 156.825195312 -7.3642578125 c 0
 128.858398438 -7.3642578125 102.040039062 3.7470703125 82.2666015625 23.5205078125 c 0
 62.4921875 43.294921875 51.380859375 70.11328125 51.380859375 98.080078125 c 0
 51.380859375 126.046875 62.4921875 152.865234375 82.2666015625 172.638671875 c 0
 102.040039062 192.413085938 128.858398438 203.524414062 156.825195312 203.524414062 c 0
 184.791992188 203.524414062 211.610351562 192.413085938 231.383789062 172.638671875 c 0
 251.158203125 152.865234375 262.26953125 126.046875 262.26953125 98.080078125 c 0
87.0703125 103.89453125 m 1
 287.916015625 103.89453125 l 1
 206.495117188 -102.140625 l 1
 25.734375 -102.140625 l 1
 87.0703125 103.89453125 l 1
EndSplineSet
EndChar

StartChar: less
Encoding: 60 60 28
Width: 619
Flags: HW
LayerCount: 2
Fore
SplineSet
25.734375 186.30859375 m 1
 25.734375 351.13671875 l 1
 610.876953125 626.689453125 l 1
 610.876953125 425.84375 l 1
 25.734375 186.30859375 l 1
25.734375 186.30859375 m 1
 25.734375 351.13671875 l 1
 610.876953125 111.6015625 l 1
 610.876953125 -89.244140625 l 1
 25.734375 186.30859375 l 1
EndSplineSet
EndChar

StartChar: equal
Encoding: 61 61 29
Width: 663
Flags: HW
LayerCount: 2
Fore
SplineSet
66.94140625 351.13671875 m 1
 66.94140625 515.965820312 l 1
 614.998046875 515.965820312 l 1
 614.998046875 351.13671875 l 1
 66.94140625 351.13671875 l 1
614.998046875 186.30859375 m 1
 614.998046875 21.4794921875 l 1
 66.94140625 21.4794921875 l 1
 66.94140625 186.30859375 l 1
 614.998046875 186.30859375 l 1
EndSplineSet
EndChar

StartChar: greater
Encoding: 62 62 30
Width: 619
Flags: HW
LayerCount: 2
Fore
SplineSet
610.876953125 186.30859375 m 1
 25.734375 425.84375 l 1
 25.734375 626.689453125 l 1
 610.876953125 351.13671875 l 1
 610.876953125 186.30859375 l 1
610.876953125 186.30859375 m 1
 25.734375 -89.244140625 l 1
 25.734375 111.6015625 l 1
 610.876953125 351.13671875 l 1
 610.876953125 186.30859375 l 1
EndSplineSet
EndChar

StartChar: question
Encoding: 63 63 31
Width: 569
Flags: HW
LayerCount: 2
Fore
SplineSet
12.7578125 588.990234375 m 1
 87.083984375 678.474609375 197.376953125 730.241210938 313.703125 730.241210938 c 0
 464.189453125 730.241210938 580.776367188 675.235351562 580.776367188 539.551757812 c 0
 580.776367188 417.54296875 430.354492188 426.79296875 386.65234375 325.379882812 c 0
 374.965820312 298.260742188 373.26953125 268.3359375 373.26953125 238.848632812 c 1
 172.423828125 238.848632812 l 1
 172.423828125 246.067382812 292.635742188 402.567382812 358.03125 487.704101562 c 0
 369.786132812 503.006835938 379.930664062 520.252929688 379.930664062 539.551757812 c 0
 379.930664062 569.157226562 347.841796875 565.413085938 313.703125 565.413085938 c 0
 251.0234375 565.413085938 191.072265625 539.772460938 147.778320312 494.448242188 c 1
 12.7578125 588.990234375 l 1
378.291015625 98.080078125 m 0
 378.291015625 70.11328125 367.1796875 43.294921875 347.40625 23.5205078125 c 0
 327.631835938 3.7470703125 300.813476562 -7.3642578125 272.846679688 -7.3642578125 c 0
 244.879882812 -7.3642578125 218.0625 3.7470703125 198.288085938 23.5205078125 c 0
 178.514648438 43.294921875 167.40234375 70.11328125 167.40234375 98.080078125 c 0
 167.40234375 126.046875 178.514648438 152.865234375 198.288085938 172.638671875 c 0
 218.0625 192.413085938 244.879882812 203.524414062 272.846679688 203.524414062 c 0
 300.813476562 203.524414062 327.631835938 192.413085938 347.40625 172.638671875 c 0
 367.1796875 152.865234375 378.291015625 126.046875 378.291015625 98.080078125 c 0
EndSplineSet
EndChar

StartChar: at
Encoding: 64 64 32
Width: 970
Flags: HW
LayerCount: 2
Fore
SplineSet
845.955078125 109.087890625 m 1
 845.955078125 -43.125 l 1
 731.698242188 -68.4169921875 615.024414062 -81.1767578125 498.000976562 -81.1767578125 c 0
 215.8515625 -81.1767578125 23.7646484375 74.373046875 23.7646484375 346.91796875 c 0
 23.7646484375 619.462890625 215.8515625 775.012695312 498.000976562 775.012695312 c 0
 772.004882812 775.012695312 972.237304688 648.911132812 972.237304688 393.76953125 c 0
 972.237304688 293.825195312 912.8359375 203.44140625 821.092773438 163.79296875 c 1
 714.147460938 146.556640625 l 1
 541.587890625 214.274414062 l 1
 642.3828125 328.331054688 l 1
 744.986328125 295.612304688 l 1
 771.6796875 321.290039062 786.764648438 356.731445312 786.764648438 393.76953125 c 0
 786.764648438 548.034179688 664.331054688 622.80078125 498.000976562 622.80078125 c 0
 323.342773438 622.80078125 209.237304688 518.87890625 209.237304688 346.91796875 c 0
 209.237304688 174.95703125 323.342773438 71.03515625 498.000976562 71.03515625 c 0
 615.024414062 71.03515625 731.698242188 83.794921875 845.955078125 109.087890625 c 1
642.3828125 542.638671875 m 1
 794.594726562 542.638671875 l 1
 693.799804688 214.274414062 l 1
 541.587890625 214.274414062 l 1
 642.3828125 542.638671875 l 1
591.985351562 378.456054688 m 1
 653.099609375 465.735351562 l 1
 617.65625 516.321289062 559.770507812 546.444335938 498.002929688 546.444335938 c 0
 185.555664062 546.444335938 0.9326171875 333.8046875 0.9326171875 13.955078125 c 0
 0.9326171875 -386.249023438 312.50390625 146.556640625 498.002929688 146.556640625 c 0
 593.416992188 146.556640625 663.978515625 235.392578125 642.3828125 328.331054688 c 1
 666.44921875 432.125 l 1
 648.029296875 353.982421875 578.287109375 298.768554688 498.002929688 298.768554688 c 0
 333.546875 298.768554688 0.9326171875 -598.557617188 0.9326171875 13.955078125 c 0
 0.9326171875 274.7109375 213.94921875 394.231445312 498.002929688 394.231445312 c 0
 529.989257812 394.231445312 561.751953125 388.900390625 591.985351562 378.456054688 c 1
EndSplineSet
EndChar

StartChar: A
Encoding: 65 65 33
Width: 686
Flags: HW
LayerCount: 2
Fore
SplineSet
352.301757812 722 m 1
 452.724609375 722 l 1
 687.110351562 0.876953125 l 1
 486.264648438 0.876953125 l 1
 302.08984375 722 l 1
 352.301757812 722 l 1
251.87890625 722 m 1
 402.512695312 722 l 1
 215.287109375 0.876953125 l 1
 17.4931640625 0.876953125 l 1
 251.87890625 722 l 1
167.874023438 287.268554688 m 1
 536.729492188 287.268554688 l 1
 536.729492188 147.163085938 l 1
 167.874023438 147.163085938 l 1
 167.874023438 287.268554688 l 1
EndSplineSet
EndChar

StartChar: B
Encoding: 66 66 34
Width: 675
Flags: HW
LayerCount: 2
Fore
SplineSet
66.94140625 722 m 1
 346.635742188 722 l 2
 498.12109375 722 612.763671875 660.504882812 612.763671875 522.146484375 c 0
 612.763671875 385.129882812 497.474609375 326.409179688 346.635742188 326.409179688 c 1
 66.94140625 384.099609375 l 1
 66.94140625 441.7890625 l 1
 346.635742188 441.7890625 l 2
 385.250976562 441.7890625 411.91796875 462.439453125 411.91796875 499.48046875 c 0
 411.91796875 536.520507812 385.250976562 557.170898438 346.635742188 557.170898438 c 2
 66.94140625 557.170898438 l 1
 66.94140625 722 l 1
66.94140625 384.099609375 m 1
 346.635742188 384.099609375 l 2
 510.500976562 384.099609375 647.328125 349.451171875 647.328125 206.912109375 c 0
 647.328125 56.771484375 514.748046875 0.876953125 346.635742188 0.876953125 c 2
 66.94140625 0.876953125 l 1
 167.364257812 165.706054688 l 1
 346.635742188 165.706054688 l 2
 404.338867188 165.706054688 446.482421875 192.309570312 446.482421875 246.057617188 c 0
 446.482421875 299.805664062 404.338867188 326.409179688 346.635742188 326.409179688 c 2
 66.94140625 326.409179688 l 1
 66.94140625 384.099609375 l 1
66.94140625 722 m 1
 267.787109375 722 l 1
 267.787109375 0.876953125 l 1
 66.94140625 0.876953125 l 1
 66.94140625 722 l 1
EndSplineSet
EndChar

StartChar: C
Encoding: 67 67 35
Width: 669
Flags: HW
LayerCount: 2
Fore
SplineSet
564.23828125 500.62890625 m 1
 519.154296875 542.28125 460.030273438 565.413085938 398.651367188 565.413085938 c 0
 285.989257812 565.413085938 226.581054688 480.65625 226.581054688 361.438476562 c 0
 226.581054688 242.220703125 285.989257812 157.463867188 398.651367188 157.463867188 c 0
 468.185546875 157.463867188 516.282226562 178.077148438 564.23828125 228.428710938 c 1
 699.2578125 133.88671875 l 1
 625.0703125 44.412109375 514.881835938 -7.3642578125 398.651367188 -7.3642578125 c 0
 170.635742188 -7.3642578125 25.734375 134.28515625 25.734375 361.438476562 c 0
 25.734375 588.591796875 170.635742188 730.241210938 398.651367188 730.241210938 c 0
 526.318359375 730.241210938 614.481445312 690.626953125 699.2578125 595.170898438 c 1
 564.23828125 500.62890625 l 1
EndSplineSet
EndChar

StartChar: D
Encoding: 68 68 36
Width: 686
Flags: HW
LayerCount: 2
Fore
SplineSet
66.94140625 557.170898438 m 1
 66.94140625 722 l 1
 317.169921875 722 l 2
 540.317382812 722 687.110351562 590.767578125 687.110351562 371.737304688 c 0
 687.110351562 144.34375 544.372070312 0.876953125 317.169921875 0.876953125 c 2
 66.94140625 0.876953125 l 1
 66.94140625 165.706054688 l 1
 317.169921875 165.706054688 l 2
 429.251953125 165.706054688 486.264648438 252.119140625 486.264648438 371.737304688 c 0
 486.264648438 482.375 424.401367188 557.170898438 317.169921875 557.170898438 c 2
 66.94140625 557.170898438 l 1
66.94140625 722 m 1
 267.787109375 722 l 1
 267.787109375 0.876953125 l 1
 66.94140625 0.876953125 l 1
 66.94140625 722 l 1
EndSplineSet
EndChar

StartChar: E
Encoding: 69 69 37
Width: 608
Flags: HW
LayerCount: 2
Fore
SplineSet
66.94140625 722 m 1
 267.787109375 722 l 1
 267.787109375 0.876953125 l 1
 66.94140625 0.876953125 l 1
 66.94140625 722 l 1
167.364257812 557.170898438 m 1
 167.364257812 722 l 1
 561.939453125 722 l 1
 561.939453125 557.170898438 l 1
 167.364257812 557.170898438 l 1
167.364257812 279.024414062 m 1
 167.364257812 443.852539062 l 1
 499.610351562 443.852539062 l 1
 499.610351562 279.024414062 l 1
 167.364257812 279.024414062 l 1
167.364257812 0.876953125 m 1
 167.364257812 165.706054688 l 1
 593.104492188 165.706054688 l 1
 593.104492188 0.876953125 l 1
 167.364257812 0.876953125 l 1
EndSplineSet
EndChar

StartChar: F
Encoding: 70 70 38
Width: 603
Flags: HW
LayerCount: 2
Fore
SplineSet
66.94140625 722 m 1
 267.787109375 722 l 1
 267.787109375 0.876953125 l 1
 66.94140625 0.876953125 l 1
 66.94140625 722 l 1
167.364257812 557.170898438 m 1
 167.364257812 722 l 1
 556.83984375 722 l 1
 556.83984375 557.170898438 l 1
 167.364257812 557.170898438 l 1
167.364257812 279.024414062 m 1
 167.364257812 443.852539062 l 1
 495.076171875 443.852539062 l 1
 495.076171875 279.024414062 l 1
 167.364257812 279.024414062 l 1
EndSplineSet
EndChar

StartChar: G
Encoding: 71 71 39
Width: 719
Flags: HW
LayerCount: 2
Fore
SplineSet
577.844726562 502.689453125 m 1
 529.795898438 543.196289062 468.975585938 565.413085938 406.130859375 565.413085938 c 0
 290.665039062 565.413085938 226.581054688 481.966796875 226.581054688 361.438476562 c 0
 226.581054688 244.459960938 292.52734375 165.706054688 406.130859375 165.706054688 c 0
 508.423828125 165.706054688 610.701171875 168.282226562 712.864257812 173.431640625 c 1
 712.864257812 8.603515625 l 1
 610.701171875 3.453125 508.423828125 0.876953125 406.130859375 0.876953125 c 0
 176.600585938 0.876953125 25.734375 136.05859375 25.734375 361.438476562 c 0
 25.734375 590.135742188 175.004882812 730.241210938 406.130859375 730.241210938 c 0
 522.372070312 730.241210938 633.419921875 682.087890625 712.864257812 597.231445312 c 1
 577.844726562 502.689453125 l 1
512.018554688 8.603515625 m 1
 512.018554688 361.438476562 l 1
 712.864257812 361.438476562 l 1
 712.864257812 8.603515625 l 1
 512.018554688 8.603515625 l 1
712.864257812 443.852539062 m 1
 712.864257812 279.024414062 l 1
 369.299804688 279.024414062 l 1
 369.299804688 443.852539062 l 1
 712.864257812 443.852539062 l 1
EndSplineSet
EndChar

StartChar: H
Encoding: 72 72 40
Width: 675
Flags: HW
LayerCount: 2
Fore
SplineSet
66.94140625 722 m 1
 267.787109375 722 l 1
 267.787109375 0.876953125 l 1
 66.94140625 0.876953125 l 1
 66.94140625 722 l 1
425.484375 0.876953125 m 1
 425.484375 722 l 1
 626.330078125 722 l 1
 626.330078125 0.876953125 l 1
 425.484375 0.876953125 l 1
167.364257812 315.08203125 m 1
 167.364257812 479.911132812 l 1
 525.907226562 479.911132812 l 1
 525.907226562 315.08203125 l 1
 167.364257812 315.08203125 l 1
EndSplineSet
EndChar

StartChar: I
Encoding: 73 73 41
Width: 254
Flags: HW
LayerCount: 2
Fore
SplineSet
30.9052734375 722 m 1
 231.750976562 722 l 1
 231.750976562 0.876953125 l 1
 30.9052734375 0.876953125 l 1
 30.9052734375 722 l 1
EndSplineSet
EndChar

StartChar: J
Encoding: 74 74 42
Width: 531
Flags: HW
LayerCount: 2
Fore
SplineSet
303.029296875 722 m 1
 503.875 722 l 1
 503.875 253.274414062 l 2
 503.875 94.994140625 408.12890625 -7.3642578125 251.600585938 -7.3642578125 c 0
 153.77734375 -7.3642578125 85.8916015625 18.43359375 12.7578125 83.40234375 c 1
 147.778320312 177.9453125 l 1
 177.58984375 145.912109375 207.841796875 132.741210938 251.600585938 132.741210938 c 0
 305.694335938 132.741210938 303.029296875 190.465820312 303.029296875 253.274414062 c 2
 303.029296875 722 l 1
EndSplineSet
EndChar

StartChar: K
Encoding: 75 75 43
Width: 641
Flags: HW
LayerCount: 2
Fore
SplineSet
66.94140625 722 m 1
 267.787109375 722 l 1
 267.787109375 0.876953125 l 1
 66.94140625 0.876953125 l 1
 66.94140625 722 l 1
428.701171875 722 m 1
 690.661132812 722 l 1
 468.6328125 361.438476562 l 1
 690.661132812 0.876953125 l 1
 428.701171875 0.876953125 l 1
 267.787109375 361.438476562 l 1
 428.701171875 722 l 1
EndSplineSet
EndChar

StartChar: L
Encoding: 76 76 44
Width: 575
Flags: HW
LayerCount: 2
Fore
SplineSet
66.94140625 722 m 1
 267.787109375 722 l 1
 267.787109375 0.876953125 l 1
 66.94140625 0.876953125 l 1
 66.94140625 722 l 1
167.364257812 0.876953125 m 1
 167.364257812 165.706054688 l 1
 543.130859375 165.706054688 l 1
 543.130859375 0.876953125 l 1
 167.364257812 0.876953125 l 1
EndSplineSet
EndChar

StartChar: M
Encoding: 77 77 45
Width: 829
Flags: HW
LayerCount: 2
Fore
SplineSet
66.94140625 722 m 1
 267.787109375 722 l 1
 267.787109375 0.876953125 l 1
 66.94140625 0.876953125 l 1
 66.94140625 722 l 1
584.131835938 722 m 1
 784.978515625 722 l 1
 784.978515625 0.876953125 l 1
 584.131835938 0.876953125 l 1
 584.131835938 722 l 1
102.958007812 722 m 1
 267.787109375 722 l 1
 508.374023438 159.525390625 l 1
 343.544921875 159.525390625 l 1
 102.958007812 722 l 1
584.131835938 722 m 1
 748.9609375 722 l 1
 508.374023438 159.525390625 l 1
 343.544921875 159.525390625 l 1
 584.131835938 722 l 1
EndSplineSet
EndChar

StartChar: N
Encoding: 78 78 46
Width: 708
Flags: HW
LayerCount: 2
Fore
SplineSet
66.94140625 722 m 1
 267.787109375 722 l 1
 267.787109375 0.876953125 l 1
 66.94140625 0.876953125 l 1
 66.94140625 722 l 1
459.48046875 722 m 1
 660.326171875 722 l 1
 660.326171875 0.876953125 l 1
 459.48046875 0.876953125 l 1
 459.48046875 722 l 1
66.94140625 722 m 1
 267.787109375 722 l 1
 624.30859375 0.876953125 l 1
 459.48046875 0.876953125 l 1
 66.94140625 722 l 1
EndSplineSet
EndChar

StartChar: O
Encoding: 79 79 47
Width: 730
Flags: HW
LayerCount: 2
Fore
SplineSet
374.965820312 730.241210938 m 1
 593.340820312 730.241210938 724.196289062 583.908203125 724.196289062 361.438476562 c 0
 724.196289062 138.96875 593.340820312 -7.3642578125 374.965820312 -7.3642578125 c 0
 156.590820312 -7.3642578125 25.734375 138.96875 25.734375 361.438476562 c 0
 25.734375 583.908203125 156.590820312 730.241210938 374.965820312 730.241210938 c 1
 374.965820312 565.413085938 l 1
 270.473632812 565.413085938 226.581054688 476.793945312 226.581054688 361.438476562 c 0
 226.581054688 246.08203125 270.473632812 157.463867188 374.965820312 157.463867188 c 0
 479.458007812 157.463867188 523.350585938 246.08203125 523.350585938 361.438476562 c 0
 523.350585938 476.793945312 479.458007812 565.413085938 374.965820312 565.413085938 c 1
 374.965820312 730.241210938 l 1
EndSplineSet
EndChar

StartChar: P
Encoding: 80 80 48
Width: 663
Flags: HW
LayerCount: 2
Fore
SplineSet
66.94140625 722 m 1
 267.787109375 722 l 1
 267.787109375 0.876953125 l 1
 66.94140625 0.876953125 l 1
 66.94140625 722 l 1
167.364257812 722 m 1
 347.765625 722 l 2
 526.71484375 722 656.205078125 637.129882812 656.205078125 469.607421875 c 0
 656.205078125 302.0859375 526.71484375 217.215820312 347.765625 217.215820312 c 2
 167.364257812 217.215820312 l 1
 167.364257812 382.044921875 l 1
 347.765625 382.044921875 l 2
 410.108398438 382.044921875 455.358398438 411.342773438 455.358398438 469.607421875 c 0
 455.358398438 527.873046875 410.108398438 557.170898438 347.765625 557.170898438 c 2
 167.364257812 557.170898438 l 1
 167.364257812 722 l 1
EndSplineSet
EndChar

StartChar: Q
Encoding: 81 81 49
Width: 729
Flags: HW
LayerCount: 2
Fore
SplineSet
374.506835938 730.326171875 m 1
 592.614257812 730.326171875 723.310546875 584.172851562 723.310546875 361.974609375 c 0
 723.310546875 139.77734375 592.614257812 -6.376953125 374.506835938 -6.376953125 c 0
 156.399414062 -6.376953125 25.703125 139.77734375 25.703125 361.974609375 c 0
 25.703125 584.172851562 156.399414062 730.326171875 374.506835938 730.326171875 c 1
 374.506835938 565.69921875 l 1
 270.142578125 565.69921875 226.303710938 477.189453125 226.303710938 361.974609375 c 0
 226.303710938 246.759765625 270.142578125 158.25 374.506835938 158.25 c 0
 478.87109375 158.25 522.709960938 246.759765625 522.709960938 361.974609375 c 0
 522.709960938 477.189453125 478.87109375 565.69921875 374.506835938 565.69921875 c 1
 374.506835938 730.326171875 l 1
474.806640625 1.8544921875 m 1
 474.806640625 -31.0615234375 528.778320312 -31.0693359375 573.9140625 -31.0693359375 c 2
 623.010742188 -31.0693359375 l 1
 623.010742188 -195.696289062 l 1
 573.9140625 -195.696289062 l 2
 424.16015625 -195.696289062 274.20703125 -130.811523438 274.20703125 1.8544921875 c 1
 474.806640625 1.8544921875 l 1
EndSplineSet
EndChar

StartChar: R
Encoding: 82 82 50
Width: 663
Flags: HW
LayerCount: 2
Fore
SplineSet
66.94140625 722 m 1
 267.787109375 722 l 1
 267.787109375 0.876953125 l 1
 66.94140625 0.876953125 l 1
 66.94140625 722 l 1
167.364257812 722 m 1
 374.967773438 722 l 2
 541.37109375 722 656.205078125 632.881835938 656.205078125 473.211914062 c 0
 656.205078125 313.541015625 541.37109375 224.423828125 374.967773438 224.423828125 c 2
 167.364257812 224.423828125 l 1
 167.364257812 389.251953125 l 1
 374.967773438 389.251953125 l 2
 425.037109375 389.251953125 455.358398438 422.39453125 455.358398438 473.211914062 c 0
 455.358398438 524.028320312 425.037109375 557.170898438 374.967773438 557.170898438 c 2
 167.364257812 557.170898438 l 1
 167.364257812 722 l 1
475.390625 306.837890625 m 1
 656.205078125 0.876953125 l 1
 455.358398438 0.876953125 l 1
 274.544921875 306.837890625 l 1
 475.390625 306.837890625 l 1
EndSplineSet
EndChar

StartChar: S
Encoding: 83 83 51
Width: 641
Flags: HW
LayerCount: 2
Fore
SplineSet
346.325195312 730.241210938 m 0
 459.33984375 730.241210938 566.041015625 678.125976562 635.51953125 588.990234375 c 1
 500.499023438 494.448242188 l 1
 463.676757812 542.310546875 406.713867188 570.357421875 346.325195312 570.357421875 c 0
 293.737304688 570.357421875 236.69921875 559.985351562 236.69921875 514.796875 c 0
 236.69921875 483.4140625 255.212890625 463.639648438 286.546875 459.236328125 c 2
 416.725585938 440.940429688 l 2
 553.28515625 421.748046875 643.659179688 347.600585938 643.659179688 214.672851562 c 0
 643.659179688 56.828125 508.182617188 -7.3642578125 333.1875 -7.3642578125 c 0
 210.810546875 -7.3642578125 94.0205078125 43.8583984375 11.12890625 133.88671875 c 1
 146.1484375 228.428710938 l 1
 197.725585938 182.708984375 264.262695312 157.463867188 333.1875 157.463867188 c 0
 391.858398438 157.463867188 442.813476562 164.192382812 442.813476562 214.672851562 c 0
 442.813476562 246.6953125 424.696289062 267.422851562 392.965820312 271.881835938 c 2
 262.786132812 290.177734375 l 2
 126.587890625 309.3203125 35.853515625 382.459960938 35.853515625 514.796875 c 0
 35.853515625 670.625 172.3359375 730.241210938 346.325195312 730.241210938 c 0
EndSplineSet
EndChar

StartChar: T
Encoding: 84 84 52
Width: 675
Flags: HW
LayerCount: 2
Fore
SplineSet
70.1396484375 557.170898438 m 1
 70.1396484375 722 l 1
 623.131835938 722 l 1
 623.131835938 557.170898438 l 1
 70.1396484375 557.170898438 l 1
246.212890625 639.584960938 m 1
 447.05859375 639.584960938 l 1
 447.05859375 0.876953125 l 1
 246.212890625 0.876953125 l 1
 246.212890625 639.584960938 l 1
EndSplineSet
EndChar

StartChar: U
Encoding: 85 85 53
Width: 702
Flags: HW
LayerCount: 2
Fore
SplineSet
66.94140625 722 m 1
 267.787109375 722 l 1
 267.787109375 294.737304688 l 2
 267.787109375 218.146484375 292.564453125 157.463867188 360.80078125 157.463867188 c 0
 429.943359375 157.463867188 456.8671875 217.686523438 456.8671875 294.737304688 c 2
 456.8671875 722 l 1
 654.661132812 722 l 1
 654.661132812 294.737304688 l 2
 654.661132812 110.993164062 542.818359375 -7.3642578125 360.80078125 -7.3642578125 c 0
 178.784179688 -7.3642578125 66.94140625 110.993164062 66.94140625 294.737304688 c 2
 66.94140625 722 l 1
EndSplineSet
EndChar

StartChar: V
Encoding: 86 86 54
Width: 724
Flags: HW
LayerCount: 2
Fore
SplineSet
33.9755859375 722 m 1
 234.821289062 722 l 1
 412.301757812 0.876953125 l 1
 271.709960938 0.876953125 l 1
 33.9755859375 722 l 1
512.497070312 722 m 1
 710.290039062 722 l 1
 472.555664062 0.876953125 l 1
 331.96484375 0.876953125 l 1
 512.497070312 722 l 1
EndSplineSet
EndChar

StartChar: W
Encoding: 87 87 55
Width: 907
Flags: HW
LayerCount: 2
Fore
SplineSet
33.9755859375 722 m 1
 214.735351562 722 l 1
 310.288085938 217.215820312 l 1
 311.071289062 0.876953125 l 1
 170.479492188 0.876953125 l 1
 129.528320312 217.215820312 l 1
 33.9755859375 722 l 1
210.6484375 0.876953125 m 1
 252.383789062 289.321289062 l 1
 293.337890625 433.5546875 l 1
 375.241210938 722 l 1
 515.833007812 722 l 1
 474.098632812 433.5546875 l 1
 433.143554688 289.321289062 l 1
 351.240234375 0.876953125 l 1
 210.6484375 0.876953125 l 1
415.41015625 722 m 1
 556.001953125 722 l 1
 637.905273438 433.5546875 l 1
 678.859375 289.321289062 l 1
 720.594726562 0.876953125 l 1
 580.002929688 0.876953125 l 1
 498.099609375 289.321289062 l 1
 457.14453125 433.5546875 l 1
 415.41015625 722 l 1
620.171875 0.876953125 m 1
 634.604492188 289.321289062 l 1
 716.5078125 722 l 1
 897.267578125 722 l 1
 815.364257812 289.321289062 l 1
 760.763671875 0.876953125 l 1
 620.171875 0.876953125 l 1
EndSplineSet
EndChar

StartChar: X
Encoding: 88 88 56
Width: 730
Flags: HW
LayerCount: 2
Fore
SplineSet
18.2822265625 722 m 1
 235.872070312 722 l 1
 476.177734375 361.438476562 l 1
 733.227539062 0.876953125 l 1
 515.637695312 0.876953125 l 1
 275.33203125 361.438476562 l 1
 18.2822265625 722 l 1
535.43359375 722 m 1
 733.227539062 722 l 1
 474.651367188 361.438476562 l 1
 216.076171875 0.876953125 l 1
 18.2822265625 0.876953125 l 1
 276.858398438 361.438476562 l 1
 535.43359375 722 l 1
EndSplineSet
EndChar

StartChar: Y
Encoding: 89 89 57
Width: 652
Flags: HW
LayerCount: 2
Fore
SplineSet
33.9755859375 722 m 1
 234.821289062 722 l 1
 375.47265625 325.379882812 l 1
 234.880859375 325.379882812 l 1
 33.9755859375 722 l 1
435.786132812 722 m 1
 636.631835938 722 l 1
 435.7265625 325.379882812 l 1
 295.134765625 325.379882812 l 1
 435.786132812 722 l 1
234.880859375 325.379882812 m 1
 435.7265625 325.379882812 l 1
 435.7265625 0.876953125 l 1
 234.880859375 0.876953125 l 1
 234.880859375 325.379882812 l 1
EndSplineSet
EndChar

StartChar: Z
Encoding: 90 90 58
Width: 663
Flags: HW
LayerCount: 2
Fore
SplineSet
66.94140625 557.170898438 m 1
 66.94140625 722 l 1
 614.998046875 722 l 1
 614.998046875 557.170898438 l 1
 66.94140625 557.170898438 l 1
66.94140625 0.876953125 m 1
 66.94140625 165.706054688 l 1
 614.998046875 165.706054688 l 1
 614.998046875 0.876953125 l 1
 66.94140625 0.876953125 l 1
495.184570312 678.78515625 m 1
 614.998046875 557.170898438 l 1
 186.754882812 44.091796875 l 1
 66.94140625 165.706054688 l 1
 495.184570312 678.78515625 l 1
EndSplineSet
EndChar

StartChar: bracketleft
Encoding: 91 91 59
Width: 420
Flags: HW
LayerCount: 2
Fore
SplineSet
63.541015625 772.958007812 m 1
 254.186523438 772.958007812 l 1
 254.186523438 -107.110351562 l 1
 63.541015625 -107.110351562 l 1
 63.541015625 772.958007812 l 1
254.186523438 616.500976562 m 1
 254.186523438 772.958007812 l 1
 368.633789062 772.958007812 l 1
 368.633789062 616.500976562 l 1
 254.186523438 616.500976562 l 1
254.186523438 -107.110351562 m 1
 254.186523438 49.3466796875 l 1
 368.633789062 49.3466796875 l 1
 368.633789062 -107.110351562 l 1
 254.186523438 -107.110351562 l 1
EndSplineSet
EndChar

StartChar: backslash
Encoding: 92 92 60
Width: 459
Flags: HW
LayerCount: 2
Fore
SplineSet
17.4931640625 730.241210938 m 1
 218.338867188 730.241210938 l 1
 454.803710938 -7.3642578125 l 1
 253.958007812 -7.3642578125 l 1
 17.4931640625 730.241210938 l 1
EndSplineSet
EndChar

StartChar: bracketright
Encoding: 93 93 61
Width: 420
Flags: HW
LayerCount: 2
Fore
SplineSet
177.989257812 772.958007812 m 1
 368.633789062 772.958007812 l 1
 368.633789062 -107.110351562 l 1
 177.989257812 -107.110351562 l 1
 177.989257812 772.958007812 l 1
177.989257812 616.500976562 m 1
 63.541015625 616.500976562 l 1
 63.541015625 772.958007812 l 1
 177.989257812 772.958007812 l 1
 177.989257812 616.500976562 l 1
177.989257812 -107.110351562 m 1
 63.541015625 -107.110351562 l 1
 63.541015625 49.3466796875 l 1
 177.989257812 49.3466796875 l 1
 177.989257812 -107.110351562 l 1
EndSplineSet
EndChar

StartChar: asciicircum
Encoding: 94 94 62
Width: 539
Flags: HW
LayerCount: 2
Fore
SplineSet
25.109375 538.779296875 m 1
 188.934570312 773.598632812 l 1
 365.873046875 773.598632812 l 1
 529.698242188 538.779296875 l 1
 441.228515625 404.474609375 l 1
 277.403320312 639.293945312 l 1
 277.403320312 639.293945312 l 1
 113.579101562 404.474609375 l 1
 25.109375 538.779296875 l 1
EndSplineSet
EndChar

StartChar: underscore
Encoding: 95 95 63
Width: 586
Flags: HW
LayerCount: 2
Fore
SplineSet
66.94140625 0.876953125 m 1
 535.673828125 0.876953125 l 1
 535.673828125 -163.951171875 l 1
 66.94140625 -163.951171875 l 1
 66.94140625 0.876953125 l 1
EndSplineSet
EndChar

StartChar: grave
Encoding: 96 96 64
Width: 296
Flags: HW
LayerCount: 2
Fore
SplineSet
55.025390625 800 m 1
 250.969726562 800 l 1
 339.143554688 598.993164062 l 1
 162.795898438 598.993164062 l 1
 55.025390625 800 l 1
EndSplineSet
EndChar

StartChar: a
Encoding: 97 97 65
Width: 586
Flags: HW
LayerCount: 2
Fore
SplineSet
50.486328125 449.265625 m 1
 126.181640625 517.599609375 196.9296875 544.809570312 298.90625 544.809570312 c 0
 438.461914062 544.809570312 535.673828125 471.645507812 535.673828125 338.365234375 c 2
 535.673828125 0.876953125 l 1
 385.040039062 0.876953125 l 1
 354.9140625 85.2490234375 l 1
 354.9140625 338.365234375 l 2
 354.9140625 387.49609375 317.48828125 412.946289062 265.2734375 412.946289062 c 0
 218.319335938 412.946289062 173.791015625 392.092773438 143.728515625 356.024414062 c 1
 50.486328125 449.265625 l 1
535.673828125 311.579101562 m 1
 535.673828125 199.49609375 l 1
 301.307617188 199.49609375 l 2
 256.564453125 199.49609375 216.538085938 197.934570312 216.538085938 159.525390625 c 0
 216.538085938 126.862304688 248.20703125 119.5546875 285.85546875 119.5546875 c 0
 316.67578125 119.5546875 344.234375 138.752929688 354.9140625 167.663085938 c 1
 354.9140625 85.2490234375 l 1
 320.326171875 27.7802734375 258.155273438 -7.3642578125 191.080078125 -7.3642578125 c 0
 89.3017578125 -7.3642578125 25.734375 57.4228515625 25.734375 159.525390625 c 0
 25.734375 269.8984375 122.788085938 311.579101562 246.194335938 311.579101562 c 2
 535.673828125 311.579101562 l 1
EndSplineSet
EndChar

StartChar: b
Encoding: 98 98 66
Width: 646
Flags: HW
LayerCount: 2
Fore
SplineSet
42.216796875 730.241210938 m 1
 243.0625 730.241210938 l 1
 243.0625 145.099609375 l 1
 192.850585938 0.876953125 l 1
 42.216796875 0.876953125 l 1
 42.216796875 145.099609375 l 1
 42.216796875 730.241210938 l 1
189.0546875 375.1953125 m 1
 210.7734375 474.236328125 298.499023438 544.809570312 399.892578125 544.809570312 c 0
 554.346679688 544.809570312 638.072265625 431.004882812 638.072265625 268.72265625 c 0
 638.072265625 106.440429688 554.346679688 -7.3642578125 399.892578125 -7.3642578125 c 0
 298.499023438 -7.3642578125 210.7734375 63.208984375 189.0546875 162.25 c 1
 243.0625 200.065429688 l 1
 254.245117188 160.252929688 290.549804688 132.741210938 331.903320312 132.741210938 c 0
 403.67578125 132.741210938 437.2265625 190.807617188 437.2265625 268.72265625 c 0
 437.2265625 346.637695312 403.67578125 404.704101562 331.903320312 404.704101562 c 0
 290.549804688 404.704101562 254.245117188 377.192382812 243.0625 337.37890625 c 1
 189.0546875 375.1953125 l 1
EndSplineSet
EndChar

StartChar: c
Encoding: 99 99 67
Width: 558
Flags: HW
LayerCount: 2
Fore
SplineSet
548.551757812 402.645507812 m 1
 427.034179688 317.557617188 l 1
 407.413085938 370.270507812 369.711914062 396.46484375 313.465820312 396.46484375 c 0
 244.6484375 396.46484375 210.512695312 342.572265625 210.512695312 268.72265625 c 0
 210.512695312 194.873046875 244.6484375 140.98046875 313.465820312 140.98046875 c 0
 364.086914062 140.98046875 409.375 172.446289062 427.034179688 219.88671875 c 1
 548.551757812 134.799804688 l 1
 502.711914062 47.3935546875 412.163085938 -7.3642578125 313.465820312 -7.3642578125 c 0
 139.202148438 -7.3642578125 25.734375 96.8974609375 25.734375 268.72265625 c 0
 25.734375 440.547851562 139.202148438 544.809570312 313.465820312 544.809570312 c 0
 423.129882812 544.809570312 497.618164062 499.763671875 548.551757812 402.645507812 c 1
EndSplineSet
EndChar

StartChar: d
Encoding: 100 100 68
Width: 646
Flags: HW
LayerCount: 2
Fore
SplineSet
420.745117188 730.241210938 m 1
 621.590820312 730.241210938 l 1
 621.590820312 145.099609375 l 1
 621.590820312 0.876953125 l 1
 470.956054688 0.876953125 l 1
 420.745117188 145.099609375 l 1
 420.745117188 730.241210938 l 1
474.751953125 375.1953125 m 1
 420.745117188 337.37890625 l 1
 409.561523438 377.192382812 373.2578125 404.704101562 331.903320312 404.704101562 c 0
 260.131835938 404.704101562 226.581054688 346.637695312 226.581054688 268.72265625 c 0
 226.581054688 190.807617188 260.131835938 132.741210938 331.903320312 132.741210938 c 0
 373.2578125 132.741210938 409.561523438 160.252929688 420.745117188 200.065429688 c 1
 474.751953125 162.25 l 1
 453.034179688 63.208984375 365.30859375 -7.3642578125 263.9140625 -7.3642578125 c 0
 109.459960938 -7.3642578125 25.734375 106.440429688 25.734375 268.72265625 c 0
 25.734375 431.004882812 109.459960938 544.809570312 263.9140625 544.809570312 c 0
 365.30859375 544.809570312 453.034179688 474.236328125 474.751953125 375.1953125 c 1
EndSplineSet
EndChar

StartChar: e
Encoding: 101 101 69
Width: 603
Flags: HW
LayerCount: 2
Fore
SplineSet
570.02734375 208.42578125 m 1
 403.075195312 208.42578125 l 1
 403.075195312 318.311523438 l 2
 403.075195312 370.254882812 372.958984375 404.704101562 322.161132812 404.704101562 c 0
 265.274414062 404.704101562 226.581054688 373.28515625 226.581054688 318.311523438 c 2
 226.581054688 263.368164062 l 1
 226.581054688 208.42578125 l 2
 226.581054688 154.399414062 265.719726562 124.499023438 322.161132812 124.499023438 c 0
 355.766601562 124.499023438 388.086914062 137.4140625 412.438476562 160.57421875 c 1
 520.455078125 84.9404296875 l 1
 471.215820312 26.4189453125 398.641601562 -7.3642578125 322.161132812 -7.3642578125 c 0
 145.22265625 -7.3642578125 25.734375 91.7861328125 25.734375 263.368164062 c 0
 25.734375 439.185546875 143.20703125 544.809570312 322.161132812 544.809570312 c 0
 490.901367188 544.809570312 593.877929688 434.146484375 593.877929688 263.368164062 c 0
 593.877929688 240.227539062 586.932617188 224.228515625 570.02734375 208.42578125 c 1
25.734375 208.42578125 m 1
 25.734375 318.311523438 l 1
 593.877929688 318.311523438 l 1
 570.02734375 208.42578125 l 1
 25.734375 208.42578125 l 1
EndSplineSet
EndChar

StartChar: f
Encoding: 102 102 70
Width: 464
Flags: HW
LayerCount: 2
Fore
SplineSet
119.524414062 0.876953125 m 1
 119.524414062 565.2265625 l 2
 119.524414062 687.783203125 213.302734375 750.844726562 343.756835938 750.844726562 c 0
 384.143554688 750.844726562 424.477539062 747.913085938 464.440429688 742.072265625 c 1
 452.228515625 602.5 l 1
 405.565429688 602.5 l 2
 361.03125 602.5 320.370117188 603.532226562 320.370117188 565.2265625 c 2
 320.370117188 0.876953125 l 1
 119.524414062 0.876953125 l 1
33.9755859375 536.567382812 m 1
 452.228515625 536.567382812 l 1
 452.228515625 371.739257812 l 1
 33.9755859375 371.739257812 l 1
 33.9755859375 536.567382812 l 1
EndSplineSet
EndChar

StartChar: g
Encoding: 103 103 71
Width: 607
Flags: HW
LayerCount: 2
Fore
SplineSet
259.139648438 545.122070312 m 1
 390.991210938 545.122070312 492.576171875 495.622070312 492.576171875 376.377929688 c 0
 492.576171875 257.133789062 390.991210938 207.634765625 259.139648438 207.634765625 c 0
 127.288085938 207.634765625 25.703125 257.133789062 25.703125 376.377929688 c 0
 25.703125 495.622070312 127.288085938 545.122070312 259.139648438 545.122070312 c 1
 259.139648438 421.651367188 l 1
 228.110351562 421.651367188 206.2421875 405.8359375 206.2421875 376.377929688 c 0
 206.2421875 346.919921875 228.110351562 331.104492188 259.139648438 331.104492188 c 0
 290.168945312 331.104492188 312.037109375 346.919921875 312.037109375 376.377929688 c 0
 312.037109375 405.8359375 290.168945312 421.651367188 259.139648438 421.651367188 c 1
 259.139648438 545.122070312 l 1
259.139648438 257.0234375 m 1
 259.139648438 207.634765625 l 1
 230.692382812 207.634765625 200.224609375 200.857421875 200.224609375 176.357421875 c 0
 200.224609375 149.134765625 227.53125 145.079101562 259.139648438 145.079101562 c 2
 410.872070312 145.079101562 l 2
 520.560546875 145.079101562 598.811523438 90.9189453125 598.811523438 -12.5498046875 c 0
 598.811523438 -137.989257812 454.676757812 -195.696289062 312.256835938 -195.696289062 c 0
 194.047851562 -195.696289062 111.81640625 -168.142578125 17.4716796875 -96.9208984375 c 1
 137.276367188 3.6083984375 l 1
 188.819335938 -47.9970703125 239.3203125 -68.93359375 312.256835938 -68.93359375 c 0
 362.08203125 -68.93359375 418.272460938 -65.7939453125 418.272460938 -22.921875 c 0
 418.272460938 1.8486328125 372.482421875 1.8544921875 335.005859375 1.8544921875 c 2
 259.139648438 1.8544921875 l 2
 133.370117188 1.8544921875 25.703125 20.8935546875 25.703125 129.439453125 c 0
 25.703125 237.984375 133.370117188 257.0234375 259.139648438 257.0234375 c 1
607.04296875 536.890625 m 1
 607.04296875 376.377929688 l 1
 402.306640625 376.377929688 l 1
 402.306640625 479.185546875 475.879882812 536.890625 582.845703125 536.890625 c 2
 607.04296875 536.890625 l 1
EndSplineSet
EndChar

StartChar: h
Encoding: 104 104 72
Width: 608
Flags: HW
LayerCount: 2
Fore
SplineSet
66.94140625 722 m 1
 267.787109375 722 l 1
 267.787109375 0.876953125 l 1
 66.94140625 0.876953125 l 1
 66.94140625 722 l 1
227.280273438 356.01171875 m 1
 216.415039062 468.452148438 285.749023438 544.809570312 398.712890625 544.809570312 c 0
 519.084960938 544.809570312 583.063476562 454.7734375 583.063476562 327.6484375 c 2
 583.063476562 0.876953125 l 1
 382.216796875 0.876953125 l 1
 382.216796875 327.6484375 l 2
 382.216796875 370.533203125 368.8203125 404.704101562 330.723632812 404.704101562 c 0
 285.58203125 404.704101562 258.7734375 371.881835938 267.787109375 327.6484375 c 1
 227.280273438 356.01171875 l 1
EndSplineSet
EndChar

StartChar: i
Encoding: 105 105 73
Width: 331
Flags: HW
LayerCount: 2
Fore
SplineSet
25.734375 371.739257812 m 1
 25.734375 536.567382812 l 1
 204.98828125 536.568359375 l 1
 204.98828125 371.739257812 l 1
 25.734375 371.739257812 l 1
104.565429688 536.567382812 m 1
 305.411132812 536.567382812 l 1
 305.411132812 0.876953125 l 1
 104.565429688 0.876953125 l 1
 104.565429688 536.567382812 l 1
310.432617188 691.09375 m 0
 310.432617188 663.126953125 299.321289062 636.309570312 279.546875 616.53515625 c 0
 259.772460938 596.76171875 232.955078125 585.649414062 204.98828125 585.649414062 c 0
 177.021484375 585.649414062 150.203125 596.76171875 130.428710938 616.53515625 c 0
 110.655273438 636.309570312 99.5439453125 663.126953125 99.5439453125 691.09375 c 0
 99.5439453125 719.060546875 110.655273438 745.87890625 130.428710938 765.653320312 c 0
 150.203125 785.426757812 177.021484375 796.538085938 204.98828125 796.538085938 c 0
 232.955078125 796.538085938 259.772460938 785.426757812 279.546875 765.653320312 c 0
 299.321289062 745.87890625 310.432617188 719.060546875 310.432617188 691.09375 c 0
EndSplineSet
EndChar

StartChar: j
Encoding: 106 106 74
Width: 298
Flags: HW
LayerCount: 2
Fore
SplineSet
65.2373046875 536.890625 m 1
 265.836914062 536.890625 l 1
 265.836914062 1.8544921875 l 2
 265.836914062 -127.446289062 168.6328125 -195.696289062 31.841796875 -195.696289062 c 2
 12.7421875 -195.696289062 l 1
 12.7421875 -31.0693359375 l 1
 31.841796875 -31.0693359375 l 2
 50.2001953125 -31.0693359375 65.2373046875 -16.4150390625 65.2373046875 1.8544921875 c 2
 65.2373046875 536.890625 l 1
270.852539062 691.227539062 m 0
 270.852539062 663.294921875 259.754882812 636.509765625 240.004882812 616.759765625 c 0
 220.254882812 597.009765625 193.469726562 585.912109375 165.537109375 585.912109375 c 0
 137.604492188 585.912109375 110.819335938 597.009765625 91.0693359375 616.759765625 c 0
 71.3193359375 636.509765625 60.2216796875 663.294921875 60.2216796875 691.227539062 c 0
 60.2216796875 719.16015625 71.3193359375 745.9453125 91.0693359375 765.6953125 c 0
 110.819335938 785.4453125 137.604492188 796.54296875 165.537109375 796.54296875 c 0
 193.469726562 796.54296875 220.254882812 785.4453125 240.004882812 765.6953125 c 0
 259.754882812 745.9453125 270.852539062 719.16015625 270.852539062 691.227539062 c 0
EndSplineSet
EndChar

StartChar: k
Encoding: 107 107 75
Width: 564
Flags: HW
LayerCount: 2
Fore
SplineSet
66.94140625 722 m 1
 267.787109375 722 l 1
 267.787109375 0.876953125 l 1
 66.94140625 0.876953125 l 1
 66.94140625 722 l 1
355.723632812 536.567382812 m 1
 587.182617188 536.567382812 l 1
 468.6328125 268.72265625 l 1
 587.182617188 0.876953125 l 1
 355.723632812 0.876953125 l 1
 267.787109375 268.72265625 l 1
 355.723632812 536.567382812 l 1
368.209960938 186.30859375 m 1
 167.364257812 186.30859375 l 1
 167.364257812 351.13671875 l 1
 368.209960938 351.13671875 l 1
 368.209960938 186.30859375 l 1
EndSplineSet
EndChar

StartChar: l
Encoding: 108 108 76
Width: 287
Flags: HW
LayerCount: 2
Fore
SplineSet
47.9033203125 730.241210938 m 1
 248.749023438 730.241210938 l 1
 248.749023438 161.5859375 l 2
 248.749023438 148.16015625 259.5546875 165.706054688 266.176757812 165.706054688 c 2
 295.641601562 165.706054688 l 1
 295.641601562 0.876953125 l 1
 266.176757812 0.876953125 l 2
 142.434570312 0.876953125 47.9033203125 49.1533203125 47.9033203125 161.5859375 c 2
 47.9033203125 730.241210938 l 1
EndSplineSet
EndChar

StartChar: m
Encoding: 109 109 77
Width: 907
Flags: HW
LayerCount: 2
Fore
SplineSet
66.94140625 536.567382812 m 1
 267.787109375 536.567382812 l 1
 267.787109375 0.876953125 l 1
 66.94140625 0.876953125 l 1
 66.94140625 536.567382812 l 1
227.280273438 384.650390625 m 1
 228.334960938 473.409179688 300.586914062 544.809570312 389.352539062 544.809570312 c 0
 483.860351562 544.809570312 540.729492188 477.928710938 525.538085938 384.650390625 c 1
 526.591796875 473.409179688 598.844726562 544.809570312 687.610351562 544.809570312 c 0
 805.1953125 544.809570312 864.301757812 453.471679688 864.301757812 327.6484375 c 2
 864.301757812 0.876953125 l 1
 663.456054688 0.876953125 l 1
 663.456054688 327.6484375 l 2
 663.456054688 369.413085938 655.80078125 404.704101562 619.62109375 404.704101562 c 0
 591.984375 404.704101562 568.833984375 383.783203125 566.044921875 356.287109375 c 1
 566.044921875 327.6484375 l 1
 566.044921875 0.876953125 l 1
 365.198242188 0.876953125 l 1
 365.198242188 327.6484375 l 2
 365.198242188 369.413085938 357.54296875 404.704101562 321.36328125 404.704101562 c 0
 293.7265625 404.704101562 270.576171875 383.783203125 267.787109375 356.287109375 c 1
 227.280273438 384.650390625 l 1
EndSplineSet
EndChar

StartChar: n
Encoding: 110 110 78
Width: 630
Flags: HW
LayerCount: 2
Fore
SplineSet
42.216796875 536.567382812 m 1
 243.0625 536.567382812 l 1
 243.0625 0.876953125 l 1
 42.216796875 0.876953125 l 1
 42.216796875 536.567382812 l 1
202.555664062 356.01171875 m 1
 207.315429688 461.62890625 294.328125 544.809570312 400.052734375 544.809570312 c 0
 528.65234375 544.809570312 605.727539062 458.65234375 605.727539062 327.6484375 c 2
 605.727539062 0.876953125 l 1
 404.880859375 0.876953125 l 1
 404.880859375 327.6484375 l 2
 404.880859375 374.1015625 377.629882812 404.704101562 332.063476562 404.704101562 c 0
 287.370117188 404.704101562 249.458984375 371.881835938 243.0625 327.6484375 c 1
 202.555664062 356.01171875 l 1
EndSplineSet
EndChar

StartChar: o
Encoding: 111 111 79
Width: 636
Flags: HW
LayerCount: 2
Fore
SplineSet
326.8046875 544.809570312 m 1
 505.962890625 544.809570312 627.875 445.942382812 627.875 272.84375 c 0
 627.875 96.515625 507.491210938 -7.3642578125 326.8046875 -7.3642578125 c 0
 146.119140625 -7.3642578125 25.734375 96.515625 25.734375 272.84375 c 0
 25.734375 445.942382812 147.647460938 544.809570312 326.8046875 544.809570312 c 1
 326.8046875 404.704101562 l 1
 257.852539062 404.704101562 226.581054688 348.091796875 226.581054688 272.84375 c 0
 226.581054688 193.87109375 255.567382812 132.741210938 326.8046875 132.741210938 c 0
 398.04296875 132.741210938 427.029296875 193.87109375 427.029296875 272.84375 c 0
 427.029296875 348.091796875 395.7578125 404.704101562 326.8046875 404.704101562 c 1
 326.8046875 544.809570312 l 1
EndSplineSet
EndChar

StartChar: p
Encoding: 112 112 80
Width: 645
Flags: HW
LayerCount: 2
Fore
SplineSet
42.1650390625 536.890625 m 1
 222.704101562 536.890625 l 1
 242.764648438 429.884765625 l 1
 242.764648438 -195.696289062 l 1
 42.1650390625 -195.696289062 l 1
 42.1650390625 536.890625 l 1
188.82421875 375.71484375 m 1
 210.515625 474.634765625 298.133789062 545.122070312 399.403320312 545.122070312 c 0
 553.668945312 545.122070312 637.291992188 431.456054688 637.291992188 269.372070312 c 0
 637.291992188 107.288085938 553.668945312 -6.376953125 399.403320312 -6.376953125 c 0
 291.509765625 -6.376953125 200.84375 74.693359375 188.82421875 181.915039062 c 1
 242.764648438 219.684570312 l 1
 244.194335938 171.708007812 283.5 133.557617188 331.498046875 133.557617188 c 0
 403.181640625 133.557617188 436.69140625 191.552734375 436.69140625 269.372070312 c 0
 436.69140625 347.192382812 403.181640625 405.1875 331.498046875 405.1875 c 0
 290.194335938 405.1875 253.934570312 377.708984375 242.764648438 337.9453125 c 1
 188.82421875 375.71484375 l 1
EndSplineSet
EndChar

StartChar: q
Encoding: 113 113 81
Width: 645
Flags: HW
LayerCount: 2
Fore
SplineSet
440.291992188 536.890625 m 1
 620.830078125 536.890625 l 1
 620.830078125 -195.696289062 l 1
 420.23046875 -195.696289062 l 1
 420.23046875 429.884765625 l 1
 440.291992188 536.890625 l 1
474.170898438 375.71484375 m 1
 420.23046875 337.9453125 l 1
 409.060546875 377.708984375 372.80078125 405.1875 331.498046875 405.1875 c 0
 259.813476562 405.1875 226.303710938 347.192382812 226.303710938 269.372070312 c 0
 226.303710938 191.552734375 259.813476562 133.557617188 331.498046875 133.557617188 c 0
 379.495117188 133.557617188 418.80078125 171.708007812 420.23046875 219.684570312 c 1
 474.170898438 181.915039062 l 1
 462.151367188 74.693359375 371.485351562 -6.376953125 263.591796875 -6.376953125 c 0
 109.326171875 -6.376953125 25.703125 107.288085938 25.703125 269.372070312 c 0
 25.703125 431.456054688 109.326171875 545.122070312 263.591796875 545.122070312 c 0
 364.861328125 545.122070312 452.48046875 474.634765625 474.170898438 375.71484375 c 1
EndSplineSet
EndChar

StartChar: r
Encoding: 114 114 82
Width: 398
Flags: HW
LayerCount: 2
Fore
SplineSet
66.94140625 536.567382812 m 1
 267.787109375 536.567382812 l 1
 267.787109375 0.876953125 l 1
 66.94140625 0.876953125 l 1
 66.94140625 536.567382812 l 1
173.2734375 388.473632812 m 1
 233.921875 475.087890625 284.344726562 544.809570312 388.5625 544.809570312 c 1
 388.5625 379.98046875 l 1
 335.892578125 379.98046875 297.865234375 365.250976562 267.787109375 322.294921875 c 1
 173.2734375 388.473632812 l 1
EndSplineSet
EndChar

StartChar: s
Encoding: 115 115 83
Width: 520
Flags: HW
LayerCount: 2
Fore
SplineSet
282.76171875 544.809570312 m 0
 371.009765625 544.809570312 456.161132812 512.275390625 521.92578125 453.430664062 c 1
 400.409179688 368.342773438 l 1
 365.748046875 392.03125 324.743164062 404.704101562 282.76171875 404.704101562 c 0
 246.377929688 404.704101562 211.290039062 411.599609375 211.290039062 379.6484375 c 0
 211.290039062 360.102539062 230.248046875 356.325195312 252.254882812 354.59375 c 2
 305.354492188 350.4140625 l 2
 432.702148438 340.391601562 521.92578125 277.48046875 521.92578125 156.48046875 c 0
 521.92578125 28.78125 402.072265625 -7.3642578125 256.211914062 -7.3642578125 c 0
 164.657226562 -7.3642578125 76.7197265625 28.3798828125 11.12890625 92.255859375 c 1
 132.645507812 177.34375 l 1
 167.37109375 148.518554688 211.081054688 132.741210938 256.211914062 132.741210938 c 0
 298.424804688 132.741210938 341.166015625 118.0234375 341.166015625 156.48046875 c 0
 341.166015625 179.036132812 317.310546875 178.225585938 291.959960938 180.220703125 c 2
 238.860351562 184.399414062 l 2
 114.631835938 194.176757812 30.5302734375 260.129882812 30.5302734375 379.6484375 c 0
 30.5302734375 503.40234375 142.887695312 544.809570312 282.76171875 544.809570312 c 0
EndSplineSet
EndChar

StartChar: t
Encoding: 116 116 84
Width: 464
Flags: HW
LayerCount: 2
Fore
SplineSet
25.734375 371.739257812 m 1
 25.734375 536.567382812 l 1
 452.228515625 536.567382812 l 1
 452.228515625 371.739257812 l 1
 25.734375 371.739257812 l 1
119.524414062 668.427734375 m 1
 320.370117188 722 l 1
 320.370117188 181.158203125 l 2
 320.370117188 155.703125 338.081054688 140.98046875 364.323242188 140.98046875 c 2
 447.833007812 140.98046875 l 1
 457.607421875 1.216796875 l 1
 411.885742188 -5.1318359375 379.580078125 -7.3642578125 333.418945312 -7.3642578125 c 0
 206.985351562 -7.3642578125 119.524414062 59.9853515625 119.524414062 181.158203125 c 2
 119.524414062 668.427734375 l 1
EndSplineSet
EndChar

StartChar: u
Encoding: 117 117 85
Width: 630
Flags: HW
LayerCount: 2
Fore
SplineSet
404.880859375 536.567382812 m 1
 605.727539062 536.567382812 l 1
 605.727539062 0.876953125 l 1
 404.880859375 0.876953125 l 1
 404.880859375 536.567382812 l 1
42.216796875 536.567382812 m 1
 243.0625 536.567382812 l 1
 243.0625 209.795898438 l 2
 243.0625 163.342773438 270.313476562 132.741210938 315.879882812 132.741210938 c 0
 360.573242188 132.741210938 398.484375 165.563476562 404.880859375 209.795898438 c 1
 458.888671875 171.979492188 l 1
 445.213867188 69.3154296875 357.643554688 -7.3642578125 254.072265625 -7.3642578125 c 0
 122.98046875 -7.3642578125 42.216796875 77.5927734375 42.216796875 209.795898438 c 2
 42.216796875 536.567382812 l 1
EndSplineSet
EndChar

StartChar: v
Encoding: 118 118 86
Width: 614
Flags: HW
LayerCount: 2
Fore
SplineSet
33.9755859375 536.567382812 m 1
 234.821289062 536.567382812 l 1
 355.641601562 0.876953125 l 1
 215.049804688 0.876953125 l 1
 33.9755859375 536.567382812 l 1
396.125 536.567382812 m 1
 596.970703125 536.567382812 l 1
 415.896484375 0.876953125 l 1
 275.3046875 0.876953125 l 1
 396.125 536.567382812 l 1
EndSplineSet
EndChar

StartChar: w
Encoding: 119 119 87
Width: 829
Flags: HW
LayerCount: 2
Fore
SplineSet
33.9755859375 536.567382812 m 1
 234.821289062 536.567382812 l 1
 285.844726562 161.5859375 l 1
 247.45703125 0.876953125 l 1
 106.866210938 0.876953125 l 1
 84.9990234375 161.5859375 l 1
 33.9755859375 536.567382812 l 1
167.120117188 0.876953125 m 1
 270.869140625 402.645507812 l 1
 161.533203125 134.799804688 l 1
 325.537109375 536.567382812 l 1
 466.127929688 536.567382812 l 1
 362.379882812 134.799804688 l 1
 471.71484375 402.645507812 l 1
 307.711914062 0.876953125 l 1
 167.120117188 0.876953125 l 1
385.791015625 536.567382812 m 1
 526.3828125 536.567382812 l 1
 690.385742188 134.799804688 l 1
 581.049804688 402.645507812 l 1
 684.798828125 0.876953125 l 1
 544.20703125 0.876953125 l 1
 380.204101562 402.645507812 l 1
 489.540039062 134.799804688 l 1
 385.791015625 536.567382812 l 1
604.461914062 0.876953125 m 1
 598.875 402.645507812 l 1
 617.09765625 536.567382812 l 1
 817.943359375 536.567382812 l 1
 799.720703125 402.645507812 l 1
 745.053710938 0.876953125 l 1
 604.461914062 0.876953125 l 1
EndSplineSet
EndChar

StartChar: x
Encoding: 120 120 88
Width: 569
Flags: HW
LayerCount: 2
Fore
SplineSet
18.2822265625 536.567382812 m 1
 235.065429688 536.567382812 l 1
 394.020507812 268.72265625 l 1
 568.913085938 0.876953125 l 1
 352.129882812 0.876953125 l 1
 193.174804688 268.72265625 l 1
 18.2822265625 536.567382812 l 1
352.129882812 536.567382812 m 1
 568.913085938 536.567382812 l 1
 394.020507812 268.72265625 l 1
 235.065429688 0.876953125 l 1
 18.2822265625 0.876953125 l 1
 193.174804688 268.72265625 l 1
 352.129882812 536.567382812 l 1
EndSplineSet
EndChar

StartChar: y
Encoding: 121 121 89
Width: 613
Flags: HW
LayerCount: 2
Fore
SplineSet
17.4716796875 536.890625 m 1
 218.071289062 536.890625 l 1
 316.729492188 269.373046875 l 1
 355.206054688 1.85546875 l 1
 214.787109375 1.85546875 l 1
 116.12890625 269.373046875 l 1
 17.4716796875 536.890625 l 1
412.102539062 536.890625 m 1
 612.702148438 536.890625 l 1
 514.044921875 269.373046875 l 1
 415.38671875 1.85546875 l 1
 274.967773438 1.85546875 l 1
 313.444335938 269.373046875 l 1
 412.102539062 536.890625 l 1
214.787109375 1.85546875 m 1
 415.38671875 1.85546875 l 1
 342.532226562 -195.696289062 l 1
 141.931640625 -195.696289062 l 1
 214.787109375 1.85546875 l 1
EndSplineSet
EndChar

StartChar: z
Encoding: 122 122 90
Width: 575
Flags: HW
LayerCount: 2
Fore
SplineSet
66.94140625 371.739257812 m 1
 66.94140625 536.567382812 l 1
 524.342773438 536.567382812 l 1
 524.342773438 371.739257812 l 1
 66.94140625 371.739257812 l 1
66.94140625 0.876953125 m 1
 66.94140625 165.706054688 l 1
 524.342773438 165.706054688 l 1
 524.342773438 0.876953125 l 1
 66.94140625 0.876953125 l 1
391.733398438 479.256835938 m 1
 524.342773438 371.739257812 l 1
 199.55078125 58.1875 l 1
 66.94140625 165.706054688 l 1
 391.733398438 479.256835938 l 1
EndSplineSet
EndChar

StartChar: braceleft
Encoding: 123 123 91
Width: 367
Flags: HW
LayerCount: 2
Fore
SplineSet
356.223632812 772.958007812 m 1
 356.223632812 616.500976562 l 1
 311.21875 616.500976562 282.884765625 588.166015625 282.884765625 543.161132812 c 2
 282.884765625 484.491210938 l 2
 282.884765625 352.092773438 166.7890625 301.6328125 18.900390625 301.6328125 c 1
 18.900390625 411.15234375 l 1
 63.9052734375 411.15234375 92.240234375 439.486328125 92.240234375 484.491210938 c 2
 92.240234375 543.161132812 l 2
 92.240234375 691.619140625 200.693359375 772.958007812 356.223632812 772.958007812 c 1
18.900390625 364.21484375 m 1
 166.7890625 364.21484375 282.884765625 313.75390625 282.884765625 181.35546875 c 2
 282.884765625 122.685546875 l 2
 282.884765625 77.6806640625 311.21875 49.3466796875 356.223632812 49.3466796875 c 1
 356.223632812 -107.110351562 l 1
 200.693359375 -107.110351562 92.240234375 -25.7724609375 92.240234375 122.685546875 c 2
 92.240234375 181.35546875 l 2
 92.240234375 226.360351562 63.9052734375 254.6953125 18.900390625 254.6953125 c 1
 18.900390625 364.21484375 l 1
EndSplineSet
EndChar

StartChar: bar
Encoding: 124 124 92
Width: 377
Flags: HW
LayerCount: 2
Fore
SplineSet
96.4833984375 800 m 1
 292.426757812 800 l 1
 292.426757812 -104.529296875 l 1
 96.4833984375 -104.529296875 l 1
 96.4833984375 800 l 1
EndSplineSet
EndChar

StartChar: braceright
Encoding: 125 125 93
Width: 368
Flags: HW
LayerCount: 2
Fore
SplineSet
24.4609375 617.611328125 m 1
 24.4609375 774.28125 l 1
 180.203125 774.28125 288.803710938 692.83203125 288.803710938 544.171875 c 2
 288.803710938 485.421875 l 2
 288.803710938 440.356445312 317.176757812 411.983398438 362.243164062 411.983398438 c 1
 362.243164062 255.313476562 l 1
 206.500976562 255.313476562 97.8994140625 336.762695312 97.8994140625 485.421875 c 2
 97.8994140625 544.171875 l 2
 97.8994140625 589.23828125 69.52734375 617.611328125 24.4609375 617.611328125 c 1
362.243164062 255.313476562 m 1
 317.176757812 255.313476562 288.803710938 226.940429688 288.803710938 181.875 c 2
 288.803710938 123.124023438 l 2
 288.803710938 -25.53515625 180.203125 -106.984375 24.4609375 -106.984375 c 1
 24.4609375 49.685546875 l 1
 69.52734375 49.685546875 97.8994140625 78.05859375 97.8994140625 123.124023438 c 2
 97.8994140625 181.875 l 2
 97.8994140625 314.453125 214.153320312 364.981445312 362.243164062 364.981445312 c 1
 362.243164062 255.313476562 l 1
EndSplineSet
EndChar

StartChar: asciitilde
Encoding: 126 126 94
Width: 691
Flags: HW
LayerCount: 2
Fore
SplineSet
25.734375 161.5859375 m 1
 25.734375 277.020507812 111.06640625 375.859375 223.376953125 375.859375 c 0
 293.26171875 375.859375 342.063476562 364.702148438 405.005859375 334.3359375 c 1
 305.264648438 203.109375 l 1
 275.2890625 208.962890625 253.918945312 211.030273438 223.376953125 211.030273438 c 0
 201.434570312 211.030273438 190.563476562 186.321289062 190.563476562 161.5859375 c 1
 25.734375 161.5859375 l 1
684.53515625 375.859375 m 1
 684.53515625 260.424804688 599.203125 161.5859375 486.893554688 161.5859375 c 0
 417.008789062 161.5859375 368.20703125 172.7421875 305.264648438 203.109375 c 1
 405.005859375 334.3359375 l 1
 434.98046875 328.482421875 456.3515625 326.415039062 486.893554688 326.415039062 c 0
 508.8359375 326.415039062 519.70703125 351.123046875 519.70703125 375.859375 c 1
 684.53515625 375.859375 l 1
EndSplineSet
EndChar
